<?xml version="1.0" encoding="utf-8"?>
<!-- Generator: Adobe Illustrator 22.0.1, SVG Export Plug-In . SVG Version: 6.00 Build 0)  -->
<svg version="1.1" id="Layer_1" xmlns="http://www.w3.org/2000/svg" xmlns:xlink="http://www.w3.org/1999/xlink" x="0px" y="0px"
	 viewBox="0 0 1024 1024" style="enable-background:new 0 0 1024 1024;" xml:space="preserve">
<style type="text/css">
	.st0{fill:#FFFFFF;}
</style>
<g>
	<path class="st0" d="M793.6,467c9.1-0.9,18.1-1.7,27.2-2.6c-0.1-0.7-0.2-1.4-0.3-2.1C811.5,463.9,802.6,465.5,793.6,467
		c-7.5,1-15.2,1.8-22.8,2.7c0.2,0.8,0.3,1.5,0.5,2.3C778.7,470.4,786.1,468.7,793.6,467z M809.4,409c11.9-5.2,23.8-10.5,35.6-15.7
		c-0.4-0.7-0.8-1.4-1.2-2.1c-11.6,5.9-23.2,11.7-34.8,17.6c-7.1,3.3-14.3,6.6-21.4,9.9c0.3,0.6,0.7,1.2,1,1.8
		C795.7,416.6,802.5,412.8,809.4,409z M362.5,262.1c-1.3-6.5-2.5-13.1-3.9-19.6c-0.1-0.6-1.8-1-2.8-1.5c-0.3,1-1.2,2.2-0.9,2.9
		c2.4,6.1,5.1,12,7.7,18c1.1,3.1,2,6.3,3.4,9.3c5.2,10.8,11.9,21.2,15.7,32.5c5.2,15.4,8.7,31.4,11.9,47.3c1,5.3,5.2,12.3-3.5,16.6
		c-1-1.3-2.1-2.6-3.5-4.3c-0.5,2-0.5,3.8-1.4,5c-1.8,2.4-3.9,5.7-6.4,6.1c-2.2,0.4-6.7-0.4-6.6-5.4c0.1-2-3-4.4-5.1-6.2
		c-8.6-7.8-17.3-15.5-26.1-23c-1.7-1.5-4.1-2.3-6.2-3.4c-0.5,0.5-1,1-1.4,1.5c12,17.1,27.3,31.8,41.5,46.2c-5,2.6-9.8,4-12.6,6.9
		c-3.2,3.3-5.9,5.3-10.4,3.6c-5.5-2.1-11.1-4.3-16.4-6.9c-11-5.4-22-10.9-32.7-16.7c-6.4-3.5-12.4-7.6-18.4-11.7
		c-10.4-7.1-21.2-13.9-30.8-21.9c-16.3-13.5-31.4-28.2-47.8-41.5c-22.3-18.2-45.2-35.7-68.1-53.2c-21.8-16.6-43.9-32.8-65.9-49.1
		c-1.9-1.4-4.3-2.1-7.5-3.6c47.4,36.7,93.8,72.6,140.3,108.4c8.5,6.5,128.3,113.2,130.6,117.2c-4.5-2.5-8.5-4.8-13.1-7.4
		c6,6,11.1,11.5,16.6,16.6c2.1,2,4.9,3.4,7.4,5c0.4-0.5,0.8-1,1.2-1.4c6.7,12.9,6.8,13.2,3.1,18.5c0.9,0.5,1.9,1,2.3,1.3
		c-2.8,3.5-6.9,6.5-7.7,10.1c-1.7,7.2-6.6,10.9-14.2,9.3c-3.3-0.7-7.9-1.5-10.2,0c-5.8,3.7-10.6,0.8-15.8-0.4
		c-10.2-0.5-20.4-1.1-30.5-1.6c4.1,2,8.4,3.6,12.5,3.5c6-0.2,12.6,3.3,18-1.9c1.9,1.9,3.8,3.7,5.9,5.8c-0.8,0.3-1.9,0.6-2.7,1.2
		c-4.6,3-7.4,10.6-4.4,12.4c5.9,3.5,3.9,8.5,0.9,11c-6.1,5-13.5,8.7-20.1,12.7c0.3,0.1,1.7,0.6,3.2,1.2c-0.1,0.5-0.3,1-0.4,1.5
		c-2.8-0.5-5.6-1.1-8.4-1.6c-7.1-1.5-14.2-3.2-21.4-4.5c-3.2-0.6-6.6-0.2-9.8-0.8c-8.5-1.6-16.8-4.4-25.3-5
		c-4.3-0.3-10.5-2.9-14.5,3.5c23.1,5.2,48.2,3.6,68,18.5c-14.4,3.7-28.6,7.7-43,11c-15.5,3.5-31.1,6.8-46.7,9.5
		c-12,2.1-24.1,3.1-36.2,4.6c-18.1,2.2-36.1,4.5-54.2,6.6c-18.4,2.1-36.9,4-55.4,5.8c-6.1,0.6-12.6,1.7-18.2,0.3
		c-6.2-1.5-11.7-1.1-17.5,0.1c-1.5,0.3-2.7,2.1-4,3.2c1.3,0.8,2.7,2.2,4,2.2c6.9-0.3,13.9-0.8,20.8-1.5c19.8-2,39.6-4.1,59.4-6.2
		c25.5-2.8,51-5.8,76.5-8.5c16.1-1.7,32.3-3.1,48.5-4.6c22.9-2.1,45.8-3.7,68.5,1.6c3.8,0.9,8.9,3.8,11.1,2.4
		c4.5-2.9,4.2,0.4,6.4,1.9c1.8,1.2,5.7-0.6,8.7-0.5c0.8,0,1.5,2,2.3,3c-1.7,0.1-3.6-0.2-5.2,0.4c-2.4,0.9-4.5,2.6-6.9,3.4
		c-18.6,6.5-37.4,12.7-56,19.4c-26.9,9.8-53.6,20-80.4,30.1c-4.3,1.6-8.6,3.4-12.9,5.1c0.2,0.5,0.4,1,0.6,1.4
		c13.1-4.6,26.2-9.1,39.2-13.7c20.9-7.5,41.6-15.1,62.5-22.7c19.2-6.9,38.5-13.7,57.7-20.7c0.7-0.2,0.8-1.9,1.2-2.9
		c1.3,1.4,2.6,2.9,3.7,4.2c1.9-0.8,4.2-1.8,6.6-2.8c-1.3,9.4,8.9,4.2,11.6,9.1c-16.5,8.4-33.1,16.8-49.6,25.2
		c0.2,0.4,0.5,0.8,0.7,1.3c19.6-9.1,39.2-18.2,59.9-27.9c-1,2.5-1.4,3.7-2.1,5.4c1.6-0.8,2.5-1.3,3.4-1.8c-0.2,0.5-0.4,1.1-0.6,1.6
		c2.8,1.3,5.6,2.5,8.2,4c2.5,1.4,6.2,2.7,6.8,4.7c3.8,12.2,0.4,22.9-10.3,30.8c-12.2,8.9-24.6,17.6-37.3,25.9
		c-3.2,2.1-8.5,3.8-11.9,2.8c-6.8-2.1-9,2.8-12.9,5.4c14-1.9,27.9-3.8,41.9-5.7c0.4,0.6,0.8,1.2,1.3,1.8
		c-50.6,36.7-101.3,73.4-151.9,110.2c19.1-11.7,38-23.7,56.2-36.4c23.8-16.5,47-33.7,70.6-50.5c9.4-6.7,19.3-12.7,28.5-19.6
		c3.3-2.5,4.8-7,7.9-9.8c5-4.4,10.8-8,16.3-11.9c9.7-7,16.7-15.9,22.4-25.9l-0.1,0.2c1.5,9.3-1.6,17.2-8.6,23.5
		c1.1,0.2,3.2,0.2,3.4,0.7c1.4,4.2,1.8,8.4-2.4,10.4c5-1.3,10.8-2.8,16.9-4.4c-18.7,22.3-36.7,43.6-54.8,65.2
		c-5.5-4.3-10.6-2.7-15.2,1.6c-3.4,3.2-6.9,6.3-9.8,9.9c-1.3,1.7-1.1,4.4-1.6,6.7c2.8,0.4,6,1.9,8.5,1.1c7.1-2.1,12.7-5.6,17.3-12.1
		c7.4-10.6,17.5-19.4,25.4-29.7c4.6-5.9,9.5-10.7,16.8-12.8c1.8-0.5,6,0.6,6.1,1.3c1.3,10.6,3.8,21.5-2.6,31.2
		c-11.1,16.7-22.9,33-34.4,49.5c-15.9,22.9-31.7,45.9-47.7,68.8c-7.7,11-15.8,21.8-23.8,32.6c-23.5,31.8-47.1,63.5-70.6,95.3
		c-5,6.7-9.7,13.6-14.5,20.4c2.1-0.6,3.3-1.8,4.3-3.1c21.6-28.5,43.4-56.9,64.6-85.7c28.1-38.3,55.3-77.3,83.7-115.4
		c11.7-15.8,24.6-31.1,38.5-45.3c18.8-19.1,39.1-36.9,57.7-54.4c1.2,0.9,2.8,2.7,4.7,3.5c3.2,1.3,5.4,2.6,3.9,6.4
		c-0.4,1.1-0.1,2.4-0.1,3.7c0.4,0.1,0.8,0.1,1.2,0.2c1-2.3,2-4.6,3.5-8c0.2,2.9-0.3,5.5,0.5,6c5,2.8,2.2,6,1.3,9.4
		c-2.2,8.7-4,17.5-5.9,26.3c-0.2,0.8,0.5,1.8,0.9,3.1c2.1-0.7,3.6-1.2,6.7-2.3c-0.8,5.1-0.8,9.3-2,13c-8.6,25.5-17.4,50.9-26.1,76.3
		c-6.9,20.1-13.6,40.4-21,60.4c-8.3,22.5-17.4,44.8-26,67.2c-7.4,19.1-14.7,38.2-22,57.3c-5.6,12.3-11.2,24.6-16.8,36.9
		c0.6,0.2,1.2,0.5,1.7,0.7c3-6.4,6.3-12.8,8.9-19.4c2.4-6,4.1-12.2,6-18.4c1.8-2.8,4.1-5.4,5.4-8.4c14.7-35.8,29.4-71.7,43.9-107.6
		c12.1-30,24.1-60.1,36.2-90.1c7.3-18.1,14.1-36.5,27-52c2.9-3.4,5.9-7.4,9.8-9.3c3.3-1.5,8-0.3,13.3-0.3c-1.2,2.2-2,3.5-2.5,4.8
		c-1.2,2.8-2.8,5.5-3.1,8.4c-1.2,9.3-1.8,18.6-3,27.9c-1.1,8.9-2.5,17.7-3.8,26.6c0.5,0.1,1.1,0.2,1.6,0.4
		c3-21.8,6.4-43.6,19.1-62.7c1.7,1.7,2.4,3.2,2.7,4.7c1.6,8.1,4.4,15.9,4.5,24.4c0.1,8.3,3.1,16.4,4.3,24.7
		c1.2,7.5,1.9,15.1,2.6,22.7c2.7,26,5.7,52,7.7,78.1c0.8,9.9-0.5,20-1.6,29.9c-1.5,12.5,0.2,29,5.1,41c1.2-6.9,2.6-14.3,3.8-21.7
		c0.3-1.6-0.1-3.3-0.3-4.9c-5.5-32.4-3-65-1.2-97.4c0.9-15-0.6-30.1,3.4-45.2c2.5-9.4-0.3-19.9,0.1-29.9c0.2-7.3,2-14.5,2.4-21.8
		c0.2-4.6-0.6-9.1,5.5-11.2c1-0.3,1.3-2.6,1.8-3.8c1.7,0.4,3.3,0.8,5.1,1.2c-0.3,1.1-0.7,2.1-0.9,2.7c1.9,1,3.7,1.6,5,2.7
		c1.7,1.5,3,3.3,4.5,5c6.6-6.1,9.4-6,14.9,0.1c3.3,3.7,6.7,7.3,11.1,12c-2.1-5-3.7-8.7-5.3-12.6c2.8-1,5-1.7,8.7-3
		c5.2,10.5,10.4,20.8,15.4,31.3c12,25.1,24.9,49.9,35.6,75.5c16.9,40.1,32.4,80.8,48.5,121.2c0.4,0.9,0.6,1.9,0.8,2.9
		c0.9,4.5,1.3,9.2,2.9,13.5c0.7,1.8,3.9,2.8,6,4.1c0.7-2.2,2.5-4.7,1.9-6.4c-1.9-5.2-5-10-7.1-15.2c-12.4-29.9-25.4-59.6-36.8-89.8
		c-19.4-51.3-37.9-102.9-56.5-154.5c-2.7-7.4-3.9-15.4,0-23.3c4.2,3.4,7.9,6.5,11.8,9.4c15.6,11.4,28.5,25.2,38.5,41
		c18.4,29,35.8,58.6,53.7,87.8c1.8,3,4.3,5.6,6.5,8.3c-1.9-5-5.2-9.1-7.6-13.6c-18.7-34.9-40.4-68.4-55.1-105.1
		c-4.9-12.2-7.9-23.1,0.9-34.8c2-2.7,5-7.4-1.2-10.3c7.3-3.9,21.1-1.3,22.1,4.9c1.1,6.9,5.9,6.1,10.2,7.4c1.9,0.5,3.8,1.1,5.4,2.1
		c10.3,6.9,21,13.3,30.6,21c12.4,10,23.9,21.1,35.7,31.8c17.4,15.7,34.6,31.5,52,47.2c9.4,8.5,19.1,16.8,28.6,25.2
		c20.6,20.4,41.3,40.8,61.9,61.2c0.9-1.3,0.7-1.9,0.4-2.2c-14.9-15.1-29.8-30.3-44.8-45.3c-5-5-10.4-9.7-15.6-14.6
		c-1.9-1.7-3.8-3.3-5.6-5c-29.3-27.1-58.7-54.2-88-81.4c-16.2-15.1-31.8-30.6-43.8-49c-2.3-3.5-2-6-0.1-10
		c2.9-6.1,3.6-13.1,5.2-19.9c5.9,2.8,12.6,6,19.3,9.2c8.3,6.8,16.6,13.6,24.9,20.3c-6.2-9.3-14.6-15.9-25.1-20.2
		c-6.6-4.6-12.7-9.8-19.8-13.5c-9.9-5.2-16.2-11.9-17.4-22.9c-0.8-8,6-17.3,14.5-17.9c1.5-0.1,3.2,0.9,4.7,1.7
		c7.1,3.5,14.1,7.3,21.3,10.6c8.4,3.9,16.8,7.6,25.3,11.2c6.9,2.9,13.9,5.8,21.1,8.3c9,3.1,18.6,5,27.2,9
		c23,10.7,45.8,21.7,68.2,33.5c32.2,16.8,63.9,34.4,95.9,51.6c4.2,2.3,8.5,4.6,12.8,6.8c0.4-0.6,0.7-1.2,1.1-1.8
		c-14.4-8.4-28.6-17.1-43.2-25.1c-15.7-8.6-31.9-16.5-47.6-25c-13.9-7.6-27.1-16.6-41.4-23.5c-40.1-19.6-79.6-40.1-117.5-63.2
		c-9.9-6-14.7-15.1-16.6-27.9c11.1,4.3,24-0.1,30.5,12.1c0.3,0.5,0.9,0.8,1.4,1.2c11.9,7.9,23.7,15.9,35.8,23.5
		c5.2,3.3,10.8,5.9,17.1,9.4c0-2.5,0.6-4.6-0.1-5c-14.4-10.1-28.9-20-43.6-30c0,0.1-0.4-0.9,0-1.4c3.8-5.1,3.6-6.6-2.8-8.7
		c-6.6-2.1-13.5-3.5-20.3-5c-7.4-1.7-14.8-3.2-22.3-4.8c-0.2-0.8-0.4-1.5-0.7-2.3c3.2-3.1,6.3-6.3,9.6-9.2c7.1-6.2,16.4-7.1,25.1-8
		c34.4-3.7,68.9-7,103.4-10.1c20.6-1.8,41.3-2.3,61.8-4.2c20.5-2,41-0.2,61.5-2.9c22.2-2.9,44.9-2.6,67.3-3.6
		c-0.9-3.3-3-5.6-8.8-4.9c-15.9,1.8-31.8,3.3-47.7,4.3c-24.4,1.5-48.9,2.6-73.4,3.8c-28.7,1.4-57.4,3.7-86.1-0.8
		c-3-0.5-6.1-1.2-9-0.8c-22.6,2.9-45.1,6-67.7,9c-5.6,0.7-11.3,2.4-15.7-0.8c-0.2-6.7,6.1-9.2,7.4-15.5c1.2-6.1,6.5-12.9,16.2-14.6
		c13.9-2.4,27.4-6.7,41-10.3c2.9-0.8,5.6-2,8.5-3c-0.1-0.3-0.2-0.6-0.3-1c-19,4.3-38,8.6-57,12.9c-0.6-0.7-1.2-1.3-1.8-2
		c9.9-12.4,19.8-24.7,30-37.5c-19.5,10-37.8,22.7-59.8,27.7c0.5-2.3,1-4.1,1.6-6.6c-4.5,1.6-7.9,2.8-11.4,4.1
		c-1.2-2.3-1.7-4.8-3.3-6c-7.6-5.7-7.5-10.1,0.7-15.2c4.5-2.8,9.1-5.8,13-9.4c8.1-7.5,15.5-15.7,23.6-23.2c5.7-5.2,12-9.8,18.1-14.7
		c-0.4-0.5-0.7-1-1.1-1.5c-12.7,7.4-26.2,13.8-37.8,22.5c-10.3,7.6-20.8,14.3-32.9,18.7c-4.5,1.7-8.7,1.6-12.4-1.6
		c2.4-1.2,4.6-2.3,6.3-3.1c-1.4-1.2-2.6-2.1-4-3.2c4.7-2,8.4-2.9,11.2-4.9c13.1-9.2,25.9-18.8,39-28.1c26.8-19.2,53-39.3,80.8-57.1
		c35.6-22.9,72.5-44.1,109-65.8c10.4-6.2,21.2-11.6,31.8-17.4c3.5-1.9,7.9-3.3,8.3-9.8c-3.8,1.6-6.6,2.4-8.9,3.9
		c-7.8,5-15.1,10.6-23,15.4c-21.3,13-42.9,25.7-64.3,38.6c-21,12.7-42.2,25.3-62.8,38.6c-28.3,18.3-56.1,37.5-84.4,55.8
		c-8.9,5.8-18.9,10.1-28.6,15.2c-2.3-3.6-3.5-5.6-4.9-7.7c-0.6,0.3-1.9,1-3.9,2.1c0-2.6,0-4.4,0-6.2c-5.2,2.4-10.1,4.8-15.4,7.2
		c-1.3-7.7-0.3-10.1,5-16.7c8.7-10.8,17.4-21.7,25.7-32.8c17-22.5,33.5-45.3,50.6-67.8c15.1-19.8,30.5-39.3,45.9-58.8
		c15.7-19.8,31.5-39.6,47.5-59.3c7.4-9.2,14.8-18.4,22.8-27.1c8.9-9.6,18.7-18.4,27.7-27.9c7.2-7.5,13.9-15.4,20.7-23.2
		c3.8-4.4,7.4-9,11.1-13.6c-3.2,1.1-5.1,3-7,5c-17.2,17.5-35.1,34.4-51.3,52.7c-17.2,19.5-32.6,40.3-49,60.4
		c-24,29.4-48.2,58.7-72.4,88c-17.8,21.6-35.8,43.1-53.7,64.6c-7,8.4-14,16.7-21,25.1c-0.7-0.3-1.4-0.7-2.2-1
		c9.6-22,19.1-44,28.7-66c-0.4-0.2-0.8-0.4-1.2-0.6c-4.4,8.2-8.7,16.3-13.3,24.8c-1.3-1.2-2.2-1.9-2.9-2.5
		c-9.4,10.2-11.8,24.4-22.5,33.6c-0.7-0.2-1.4-0.5-2.1-0.7c1.3-5.1,2.6-10.3,3.9-15.4c-0.5-0.2-0.9-0.5-1.4-0.7
		c-2.6,3.4-5.3,6.8-8.6,11.1c0-7-1.6-13.7,0.3-19.5c7.5-23.4,15.6-46.7,24.5-69.8c14.3-37.4,29.4-74.5,44.1-111.7
		c1.6-4.1,3.2-8.3,4.9-12.4c-0.5-0.2-1-0.4-1.5-0.7c-6.4,11.4-13.4,22.6-19.2,34.3c-15.6,30.9-31,61.8-45.9,93
		c-7.2,15-12.8,30.6-19.6,45.7c-3.2,7-7.5,13.5-11.4,20.1c-0.9,1.5-2.5,2.6-3.8,3.9c-0.7-0.3-1.4-0.7-2.1-1
		c3-12.2,6.1-24.3,9.1-36.5c-1.9,0.8-2.2,1.9-2.6,3.1c-5.5,16.8-6.2,34.9-15.4,50.8c-0.2,0.3,0,0.8-0.1,1.2
		c-3,8.5-13.4,15.8-23.6,16.1c1.6-3.3,2.3-7,4.7-9.2c4.7-4.4,4.3-9.4,4.1-14.8c-0.2-4.5-0.3-9,0.3-13.4c1.2-9.6,2.9-19.1,4.1-28.8
		c2.8-22.6,5.3-45.3,8-67.9c0.3-2.2,0.6-4.3,0.9-6.5c-2.7,6.4-3.6,13.1-5.5,19.6c-5.8,20.2-11.8,40.4-18.1,60.5
		c-4.4,14.2-6.8,29.3-19.5,40c-5.2-2.1-6.5-5.8-5-14.7c4.1-23.7,8.1-47.4,12.1-71.1c0.2-1.1-0.3-2.3-0.6-4.7
		c-4.8,20.2-9.9,38.9-13.3,57.8c-1.8,10.1-5.7,18.7-13.4,27.9c-2.9-5.6-6.7-10.3-7.9-15.5c-1.7-7.2-1.6-14.7-2-22.1
		c-0.7-12-1.1-24.1-1.7-36.1c-1.5,5-1.3,9.9-1.6,14.8c-0.1,2.2-1.3,6.1-1.8,6.1c-5.3-0.4-6.7,3.9-9,6.5
		c-10.1-9.1-11.3-20.9-13.8-32.3c-2.5-11.7-4.8-23.4-7-35.2c-2.1-11.2-3.9-22.5-5.8-33.8c-0.9,0.1-1.9,0.1-2.8,0.2
		c1.5,34.6,3,69.2,4.6,104.2c-11.8-4-23.2-13-27.9-22.2c-10-19.7-20.8-39.1-29.2-59.3c-15.2-36.5-29.3-73.5-43.1-110.5
		c-12.6-34-21.2-69.1-27.9-104.6C344.1,3,343.5,1.5,343,0c0.9,12.8,2.4,25.5,5.6,37.7c7.1,26.9,14.1,53.9,22.8,80.3
		c11.9,35.8,26.3,71,38,106.9c7.8,24.1,12.8,49,18.9,73.6c1.2,4.9-4,11.1-9.4,12.1c1.2,6.9,3.9,14-1.5,20.5c-1.1,1.3-2.7,3.2-4,3.2
		c-1.4-0.1-3.2-1.8-4.1-3.2c-6.2-9.3-11-19.7-18.6-27.7c-10.3-10.8-17.2-23.1-23.9-35.7C365.7,265.7,363.9,264,362.5,262.1z
		 M334.2,229.1c0.4-0.1,0.7-0.1,1.1-0.2c-0.4-2.4-0.5-4.9-1.2-7.2c-4.1-12.9-8.7-25.8-12.5-38.8c-2.9-9.7-4-20-7.5-29.5
		c-4.4-11.9-10.4-23.3-15.6-34.9c-0.7,0.3-1.4,0.5-2.1,0.8c3.3,8.4,6.7,16.8,10,25.3c0.5,1.3,1.4,3.5,1,3.8c-4.8,3.3-1.1,6.7-0.4,10
		c0.7,3.6,1.5,7.2,2.7,10.7c1,2.9,2.4,5.6,4,8.3c1.9,3.3,5,6.1,6.3,9.5C324.9,200.9,329.5,215,334.2,229.1z M336.3,332.2
		c0.3-0.2,0.6-0.4,1-0.6c-2.7-6.4-5.7-12.6-7.9-19.1c-1.4-4.2-0.7-9.2-2.4-13.2c-1.5-3.5-4.7-7-8.2-8.7c-1.6-0.8-6.6,2.3-8.2,4.7
		c-1.6,2.3-2,6.4-1,9c2,5.1,5.2,9.9,8.1,14.6c2.4,3.8,5.5,6.6,10.2,2.6C331,325.4,333.6,328.8,336.3,332.2z M524.8,945.8
		c-0.6,0-1.3,0-1.9,0c0,9.9,0.3,19.9-0.1,29.8c-0.4,10.1,1.9,20.4-2.7,30.3c-1.6,3.6-2.6,7.8-2.5,11.6c0,2.2,2.8,4.3,4.3,6.4
		c1.3-2,3.1-3.9,3.7-6c0.7-2.5,0.4-5.3,0.3-8c-0.3-10.8-0.9-21.7-1.2-32.5C524.7,966.9,524.8,956.3,524.8,945.8z M615.4,243.1
		c-9.1,2.9-13.4,14.4-11.4,29.7C612.2,269.1,617.9,254.7,615.4,243.1z M697.7,781.7c-0.1,1.1-0.2,2.2-0.3,3.3
		c5.2,3,10.2,6.3,15.6,8.8c1.1,0.5,4.8-1.4,5.4-2.9c1.4-3.2-5.6-12.9-10-13C704.9,777.7,701.3,780.3,697.7,781.7z M495.1,221.5
		c7.9-4,10.6-13.3,6-18.3c-1.5-1.7-5.5-3.5-6.9-2.7c-2,1-4,4.5-3.7,6.6C491.2,211.8,493.3,216.3,495.1,221.5z M809.1,277.1
		c3-1.2,5.7-1.9,8.1-3.2c2.3-1.4,4.7-3.1,6.2-5.2c1.5-2.1,1.8-4.9,2.6-7.4c-2.8,0.1-5.8-0.4-8.2,0.5c-2.1,0.9-4,3.1-5.1,5.2
		C811.1,270.1,810.3,273.6,809.1,277.1z M435.8,127.6c2.3-9.9,1-16.4-6.1-28.8C432.1,108,425.4,118.7,435.8,127.6z M744,425
		c-1,5.7-12.7,6.7-6.5,15.3c5.6-4.3,10.9-8.3,16.1-12.3c-0.4-0.5-0.7-1-1.1-1.4c-1.6,0.8-3.3,1.5-4.9,2.3
		C746.4,427.6,745.2,426.3,744,425z M751.8,31.9c-9,4-11.7,10.8-6.7,16.6C753.4,41.9,755.1,37.6,751.8,31.9z M369.1,774.8
		c-8.9,5.6-12,12.7-7.7,19.4C364.4,787.6,371,783.1,369.1,774.8z M189.4,420.1c-0.2,1-0.4,1.9-0.7,2.9c9.6,2.2,19.2,4.4,28.9,6.6
		c0.2-0.8,0.4-1.6,0.6-2.4C208.1,426.7,199.8,419.5,189.4,420.1z M439.6,159.9c-0.5,0-1,0.1-1.5,0.1c1.3,15.7,2.6,31.4,3.9,47.1
		c0.7,0,1.3-0.1,2-0.1C442.4,191.2,441,175.6,439.6,159.9z M786.6,541.3c-2.2-7.8-8.5-5.4-12.4-6.7c-1.7-0.6-4.3,0.9-6.4,1.5
		c0.2,0.8,0.3,1.5,0.5,2.3C773.9,539.3,779.4,540.1,786.6,541.3z M597.8,72.2c-5.3,7.4-5.2,9.5,0.2,13.5
		C603.9,79.1,603.9,75.9,597.8,72.2z M891.6,361c6.7,3.8,10.6,3.1,14.8-2.2C902.3,354.9,897.6,355.5,891.6,361z M745.3,188.6
		c-2.2,3.2-4.2,5.6-5.5,8.3c-0.4,0.9,1.5,3.9,1.8,3.8c2.2-0.5,4.5-1.3,6.4-2.5c0.9-0.5,1.1-2.2,1.2-3.3c0-0.3-1.3-0.7-1.7-1.2
		C746.8,192.4,746.3,191.1,745.3,188.6z M225.4,632.9c0.4,0.5,0.8,1,1.3,1.6c9-6.5,18.1-12.9,27.1-19.4c-0.4-0.5-0.9-1.1-1.3-1.6
		C243.5,619.9,234.4,626.4,225.4,632.9z M578.1,919.7c-0.9,0-1.7,0-2.6,0c-2.8,5.2-1.4,10.1,1.5,14.8c0.8-0.1,1.6-0.1,2.3-0.2
		C578.9,929.4,578.5,924.5,578.1,919.7z M398.7,20.5c-1.2,0.1-2.4,0.1-3.6,0.2c0.3,4.3,0.6,8.6,0.9,12.9c1.1-0.1,2.3-0.1,3.4-0.2
		C399.2,29.1,398.9,24.8,398.7,20.5z M251.4,483.2c0,0.5-0.1,1-0.1,1.5c7.6,0,15.1,0,22.7,0c0-0.5,0-1,0-1.5
		C266.5,483.2,259,483.2,251.4,483.2z"/>
	<path d="M352.2,971.8c7.3-19.1,14.6-38.2,22-57.3c8.7-22.4,17.7-44.7,26-67.2c7.4-20,14-40.3,21-60.4c8.8-25.4,17.6-50.8,26.1-76.3
		c1.3-3.8,1.3-7.9,2-13c-3.1,1-4.6,1.6-6.7,2.3c-0.4-1.3-1.1-2.3-0.9-3.1c1.8-8.8,3.7-17.6,5.9-26.3c0.9-3.4,3.7-6.6-1.3-9.4
		c-0.8-0.5-0.3-3-0.5-6c-1.5,3.5-2.5,5.7-3.5,8c-0.4-0.1-0.8-0.1-1.2-0.2c0-1.2-0.4-2.6,0.1-3.7c1.5-3.8-0.7-5.1-3.9-6.4
		c-2-0.8-3.5-2.6-4.7-3.5c-18.6,17.4-38.9,35.2-57.7,54.4c-13.9,14.2-26.7,29.5-38.5,45.3c-28.4,38.2-55.6,77.1-83.7,115.4
		c-21.1,28.8-43,57.2-64.6,85.7c-1,1.3-2.2,2.5-4.3,3.1c4.8-6.8,9.6-13.7,14.5-20.4c23.5-31.8,47.1-63.5,70.6-95.3
		c8-10.8,16.1-21.6,23.8-32.6c16-22.8,31.8-45.8,47.7-68.8c11.5-16.5,23.2-32.8,34.4-49.5c6.5-9.7,4-20.7,2.6-31.2
		c-0.1-0.7-4.3-1.8-6.1-1.3c-7.3,2.1-12.3,6.9-16.8,12.8c-7.9,10.3-18.1,19.1-25.4,29.7c-4.5,6.5-10.2,10-17.3,12.1
		c-2.4,0.7-5.6-0.7-8.5-1.1c0.5-2.3,0.3-5,1.6-6.7c2.8-3.6,6.4-6.7,9.8-9.9c4.6-4.3,9.6-5.9,15.2-1.6c18.1-21.6,36.1-42.9,54.8-65.2
		c-6.1,1.6-11.9,3.1-16.9,4.4c4.2-2,3.8-6.2,2.4-10.4c-0.2-0.5-2.3-0.5-3.4-0.7c7-6.3,10.1-14.2,8.5-23.5c1.4-6-1.2-12.9,5.1-18.7
		c-2.7-3.4-5.5-7.1-8.4-10.7c-1,0.3-2,0.6-3.1,0.9c0.8,9.5,1.5,18.9,2.5,28.3c0,0.1,2.7,0,4.1,0c-5.7,10-12.7,18.9-22.4,25.9
		c-5.5,3.9-11.2,7.6-16.3,11.9c-3.2,2.7-4.6,7.3-7.9,9.8c-9.2,6.9-19.1,13-28.5,19.6c-23.6,16.8-46.9,33.9-70.6,50.5
		c-18.3,12.7-37.1,24.7-56.2,36.4c50.6-36.7,101.3-73.4,151.9-110.2c-0.4-0.6-0.8-1.2-1.3-1.8c-14,1.9-27.9,3.8-41.9,5.7
		c3.9-2.6,6.1-7.5,12.9-5.4c3.3,1,8.6-0.7,11.9-2.8c12.7-8.3,25.1-16.9,37.3-25.9c10.8-7.9,14.1-18.6,10.3-30.8
		c-0.6-2-4.4-3.3-6.8-4.7c-2.7-1.5-5.5-2.7-8.2-4c0.2-0.5,0.4-1.1,0.6-1.6c-0.9,0.5-1.8,0.9-3.4,1.8c0.7-1.7,1.1-2.9,2.1-5.4
		c-20.7,9.6-40.3,18.7-59.9,27.9c-0.2-0.4-0.5-0.8-0.7-1.3c16.5-8.4,33-16.8,49.6-25.2c-2.6-4.9-12.9,0.3-11.6-9.1
		c-2.4,1-4.7,2-6.6,2.8c-1.2-1.3-2.5-2.8-3.7-4.2l0.2,0.2c-0.7-1.1-1.5-3-2.3-3c-3-0.1-6.9,1.7-8.7,0.5c-2.2-1.5-1.8-4.7-6.4-1.9
		c-2.1,1.4-7.3-1.5-11.1-2.4c-22.7-5.3-45.6-3.7-68.5-1.6c-16.2,1.5-32.3,2.9-48.5,4.6c-25.5,2.7-51,5.7-76.5,8.5
		c-19.8,2.2-39.6,4.2-59.4,6.2c-6.9,0.7-13.8,1.2-20.8,1.5c-1.3,0.1-2.7-1.4-4-2.2c1.3-1.1,2.5-2.9,4-3.2c5.8-1.2,11.3-1.6,17.5-0.1
		c5.7,1.4,12.2,0.3,18.2-0.3c18.5-1.8,36.9-3.7,55.4-5.8c18.1-2,36.1-4.3,54.2-6.6c12.1-1.5,24.2-2.6,36.2-4.6
		c15.7-2.7,31.3-5.9,46.7-9.5c14.4-3.3,28.6-7.3,43-11c-19.7-14.9-44.9-13.3-68-18.5c4-6.4,10.1-3.9,14.5-3.5
		c8.5,0.6,16.9,3.4,25.3,5c3.2,0.6,6.6,0.2,9.8,0.8c7.2,1.3,14.3,3,21.4,4.5c2.8,0.6,5.6,1.1,8.4,1.6c0.1-0.5,0.3-1,0.4-1.5
		c-1.5-0.6-3-1.1-3.2-1.2c6.6-4.1,14-7.7,20.1-12.7c3-2.5,5-7.5-0.9-11c-3-1.8-0.2-9.4,4.4-12.4c0.8-0.6,1.9-0.8,2.7-1.2
		c-2.1-2.1-4-3.9-5.9-5.8l0,0c5.2,1.1,10,4.1,15.8,0.4c2.4-1.5,6.9-0.7,10.2,0c7.6,1.6,12.5-2,14.2-9.3c0.9-3.6,4.9-6.5,7.7-10.1
		c-0.4-0.2-1.4-0.8-2.3-1.3c3.7-5.4,3.6-5.6-3.1-18.5c-0.4,0.5-0.8,1-1.2,1.4c-2.5-1.7-5.3-3-7.4-5c-5.5-5.2-10.6-10.6-16.6-16.6
		c4.7,2.6,8.7,4.9,13.1,7.4c-2.3-4-122.1-110.7-130.6-117.2c-46.5-35.8-92.9-71.7-140.3-108.4c3.1,1.5,5.6,2.2,7.5,3.6
		c22,16.3,44.2,32.5,65.9,49.1c22.9,17.5,45.8,35,68.1,53.2c16.4,13.4,31.5,28.1,47.8,41.5c9.6,8,20.4,14.7,30.8,21.9
		c6,4.1,12,8.2,18.4,11.7c10.7,5.9,21.7,11.3,32.7,16.7c5.3,2.6,10.8,4.8,16.4,6.9c4.5,1.7,7.2-0.3,10.4-3.6
		c2.8-2.9,7.6-4.3,12.6-6.9c-14.3-14.4-29.6-29.1-41.5-46.2c0.5-0.5,1-1,1.4-1.5c2.1,1.1,4.5,1.9,6.2,3.4c8.8,7.6,17.5,15.3,26.1,23
		c2,1.8,5.1,4.2,5.1,6.2c-0.2,5,4.4,5.8,6.6,5.4c2.5-0.4,4.6-3.8,6.4-6.1c0.9-1.2,0.9-3.1,1.4-5c1.4,1.7,2.5,3,3.5,4.3
		c8.7-4.3,4.5-11.3,3.5-16.6c-3.2-15.9-6.7-31.9-11.9-47.3c-3.8-11.2-10.4-21.6-15.7-32.5c-1.4-3-2.3-6.2-3.4-9.3l-0.1,0.2
		c1.5,1.9,3.3,3.6,4.3,5.7c6.7,12.6,13.6,24.9,23.9,35.7c7.6,8,12.4,18.4,18.6,27.7c0.9,1.4,2.7,3.1,4.1,3.2c1.3,0,2.9-1.8,4-3.2
		c5.4-6.5,2.7-13.5,1.5-20.5c5.4-1.1,10.6-7.3,9.4-12.1c-6.1-24.6-11.1-49.5-18.9-73.6c-11.7-35.9-26.1-71-38-106.9
		c-8.8-26.4-15.8-53.4-22.8-80.3C345.4,25.5,344,12.8,343,0c0.5,1.5,1.1,3,1.4,4.6c6.7,35.5,15.3,70.6,27.9,104.6
		c13.7,37,27.9,74,43.1,110.5c8.4,20.2,19.2,39.6,29.2,59.3c4.7,9.3,16.1,18.3,27.9,22.2c-1.5-35-3.1-69.6-4.6-104.2
		c0.9-0.1,1.9-0.1,2.8-0.2c1.9,11.3,3.7,22.6,5.8,33.8c2.2,11.8,4.5,23.5,7,35.2c2.5,11.4,3.7,23.2,13.8,32.3c2.2-2.6,3.7-6.9,9-6.5
		c0.4,0,1.7-4,1.8-6.1c0.3-4.9,0.1-9.8,1.6-14.8c0.5,12,1,24.1,1.7,36.1c0.4,7.4,0.3,14.9,2,22.1c1.2,5.2,4.9,9.9,7.9,15.5
		c7.7-9.1,11.5-17.8,13.4-27.9c3.4-18.9,8.6-37.6,13.3-57.8c0.3,2.4,0.8,3.6,0.6,4.7c-4,23.7-8,47.4-12.1,71.1
		c-1.5,8.9-0.3,12.6,5,14.7c12.7-10.7,15.1-25.8,19.5-40c6.3-20.1,12.2-40.3,18.1-60.5c1.9-6.5,2.9-13.2,5.5-19.6
		c-0.3,2.2-0.7,4.3-0.9,6.5c-2.7,22.6-5.2,45.3-8,67.9c-1.2,9.6-3,19.1-4.1,28.8c-0.5,4.4-0.4,9-0.3,13.4c0.2,5.3,0.7,10.4-4.1,14.8
		c-2.4,2.2-3.1,5.9-4.7,9.2c10.1-0.2,20.6-7.6,23.6-16.1c0.1-0.4-0.1-0.9,0.1-1.2c9.1-15.9,9.9-34,15.4-50.8
		c0.4-1.1,0.7-2.3,2.6-3.1c-3,12.2-6.1,24.3-9.1,36.5c0.7,0.3,1.4,0.7,2.1,1c1.3-1.3,2.9-2.4,3.8-3.9c4-6.6,8.3-13.2,11.4-20.1
		c6.8-15.1,12.5-30.8,19.6-45.7c14.9-31.2,30.3-62.1,45.9-93c5.9-11.7,12.8-22.8,19.2-34.3c0.5,0.2,1,0.4,1.5,0.7
		c-1.6,4.1-3.2,8.3-4.9,12.4c-14.7,37.2-29.8,74.3-44.1,111.7c-8.8,23-16.9,46.3-24.5,69.8c-1.8,5.7-0.3,12.4-0.3,19.5
		c3.3-4.3,6-7.7,8.6-11.1c0.5,0.2,0.9,0.5,1.4,0.7c-1.3,5.1-2.6,10.3-3.9,15.4c0.7,0.2,1.4,0.5,2.1,0.7
		c10.7-9.2,13.1-23.5,22.5-33.6c0.7,0.6,1.6,1.3,2.9,2.5c4.5-8.5,8.9-16.6,13.3-24.8c0.4,0.2,0.8,0.4,1.2,0.6
		c-9.6,22-19.1,44-28.7,66c0.7,0.3,1.4,0.7,2.2,1c7-8.4,14-16.7,21-25.1c17.9-21.5,35.9-43,53.7-64.6c24.2-29.3,48.3-58.6,72.4-88
		c16.4-20.1,31.8-40.9,49-60.4c16.2-18.3,34.1-35.2,51.3-52.7c1.9-2,3.9-3.9,7-5c-3.7,4.5-7.2,9.2-11.1,13.6
		c-6.8,7.8-13.5,15.7-20.7,23.2c-9,9.5-18.8,18.3-27.7,27.9c-8,8.7-15.4,17.9-22.8,27.1c-15.9,19.7-31.8,39.4-47.5,59.3
		c-15.4,19.5-30.9,39-45.9,58.8c-17.1,22.5-33.7,45.3-50.6,67.8c-8.4,11.1-17,22-25.7,32.8c-5.3,6.6-6.3,9-5,16.7
		c5.2-2.4,10.2-4.8,15.4-7.2c0,1.8,0,3.6,0,6.2c2.1-1.1,3.3-1.7,3.9-2.1c1.3,2.1,2.6,4.1,4.9,7.7c9.7-5.1,19.7-9.4,28.6-15.2
		c28.3-18.3,56-37.5,84.4-55.8c20.6-13.3,41.7-25.8,62.8-38.6c21.4-13,43-25.6,64.3-38.6c7.9-4.8,15.2-10.4,23-15.4
		c2.3-1.5,5.2-2.3,8.9-3.9c-0.4,6.5-4.8,7.8-8.3,9.8c-10.6,5.9-21.4,11.3-31.8,17.4c-36.5,21.7-73.4,42.9-109,65.8
		c-27.8,17.9-54,38-80.8,57.1c-13,9.3-25.9,18.9-39,28.1c-2.8,2-6.5,2.9-11.2,4.9c1.4,1.1,2.6,2.1,4,3.2c-1.7,0.9-3.9,1.9-6.3,3.1
		c3.7,3.2,7.9,3.2,12.4,1.6c12.1-4.5,22.6-11.1,32.9-18.7c11.6-8.6,25.1-15.1,37.8-22.5c0.4,0.5,0.7,1,1.1,1.5
		c-6.1,4.9-12.4,9.4-18.1,14.7c-8.1,7.5-15.5,15.7-23.6,23.2c-3.8,3.6-8.4,6.5-13,9.4c-8.1,5.1-8.3,9.5-0.7,15.2
		c1.6,1.2,2.1,3.8,3.3,6c3.5-1.2,6.9-2.5,11.4-4.1c-0.6,2.5-1,4.3-1.6,6.6c22-5,40.3-17.7,59.8-27.7c-10.2,12.7-20.1,25.1-30,37.5
		c0.6,0.7,1.2,1.3,1.8,2c19-4.3,38-8.6,57-12.9c0.1,0.3,0.2,0.6,0.3,1c-2.8,1-5.6,2.2-8.5,3c-13.6,3.6-27.1,7.9-41,10.3
		c-9.7,1.7-15,8.5-16.2,14.6c-1.3,6.3-7.6,8.8-7.4,15.5c4.4,3.2,10.1,1.6,15.7,0.8c22.6-3,45.1-6.1,67.7-9c2.9-0.4,6.1,0.3,9,0.8
		c28.7,4.5,57.4,2.2,86.1,0.8c24.5-1.2,49-2.3,73.4-3.8c15.9-1,31.9-2.5,47.7-4.3c5.8-0.7,7.9,1.6,8.8,4.9
		c-22.4,1.1-45.1,0.7-67.3,3.6c-20.5,2.7-41.1,0.9-61.5,2.9c-20.5,2-41.3,2.4-61.8,4.2c-34.5,3-69,6.3-103.4,10.1
		c-8.8,0.9-18.1,1.9-25.1,8c-3.3,2.9-6.4,6.1-9.6,9.2c0.2,0.8,0.4,1.5,0.7,2.3c7.4,1.6,14.9,3.1,22.3,4.8c6.8,1.5,13.7,2.9,20.3,5
		c6.5,2.1,6.6,3.6,2.8,8.7c-0.4,0.5,0,1.4,0,1.4c14.7,10.1,29.2,20,43.6,30c0.7,0.5,0.1,2.5,0.1,5c-6.3-3.4-11.9-6.1-17.1-9.4
		c-12-7.7-23.9-15.7-35.8-23.5c-0.5-0.3-1.2-0.7-1.4-1.2c-6.5-12.2-19.5-7.7-30.5-12.1c1.9,12.8,6.7,21.9,16.6,27.9
		c38,23.1,77.4,43.6,117.5,63.2c14.3,7,27.4,15.9,41.4,23.5c15.7,8.6,31.9,16.4,47.6,25c14.6,8,28.8,16.7,43.2,25.1
		c-0.4,0.6-0.7,1.2-1.1,1.8c-4.3-2.3-8.5-4.5-12.8-6.8c-31.9-17.2-63.7-34.8-95.9-51.6c-22.4-11.7-45.2-22.8-68.2-33.5
		c-8.5-4-18.2-5.8-27.2-9c-7.1-2.5-14.1-5.3-21.1-8.3c-8.5-3.6-17-7.3-25.3-11.2c-7.2-3.4-14.2-7.1-21.3-10.6
		c-1.5-0.7-3.2-1.8-4.7-1.7c-8.5,0.5-15.4,9.9-14.5,17.9c1.2,11,7.4,17.7,17.4,22.9c7.1,3.7,13.2,8.9,19.8,13.5l0.1-0.1
		c-6.7-3.2-13.4-6.4-19.3-9.2c-1.6,6.7-2.2,13.8-5.2,19.9c-1.9,4-2.2,6.5,0.1,10c11.9,18.4,27.6,33.9,43.8,49
		c29.3,27.2,58.7,54.3,88,81.4c1.8,1.7,3.7,3.4,5.6,5c-0.6,0.3-1.3,0.6-1.9,1c-9.5-8.4-19.2-16.7-28.6-25.2
		c-17.4-15.7-34.6-31.5-52-47.2c-11.8-10.7-23.3-21.7-35.7-31.8c-9.5-7.7-20.3-14.1-30.6-21c-1.5-1-3.5-1.6-5.4-2.1
		c-4.4-1.3-9.1-0.5-10.2-7.4c-1-6.1-14.8-8.7-22.1-4.9c6.2,2.9,3.2,7.7,1.2,10.3c-8.8,11.7-5.8,22.6-0.9,34.8
		c14.7,36.8,36.5,70.2,55.1,105.1c2.4,4.5,5.7,8.6,7.6,13.6c-2.2-2.8-4.6-5.4-6.5-8.3c-17.9-29.3-35.3-58.8-53.7-87.8
		c-10-15.7-22.9-29.6-38.5-41c-3.9-2.9-7.6-6-11.8-9.4c-4,7.9-2.7,15.9,0,23.3c18.6,51.6,37.1,103.2,56.5,154.5
		c11.4,30.2,24.4,59.9,36.8,89.8c2.1,5.2,5.3,10,7.1,15.2c0.6,1.7-1.2,4.2-1.9,6.4c-2.1-1.3-5.3-2.3-6-4.1c-1.6-4.3-2-9-2.9-13.5
		c-0.2-1-0.5-1.9-0.8-2.9c-16.1-40.4-31.6-81.1-48.5-121.2c-10.8-25.6-23.6-50.4-35.6-75.5c-5-10.4-10.2-20.8-15.4-31.3
		c-3.7,1.3-5.9,2-8.7,3c1.6,3.9,3.2,7.5,5.3,12.6c-4.4-4.7-7.8-8.3-11.1-12c-5.5-6.1-8.3-6.2-14.9-0.1c-1.5-1.7-2.8-3.5-4.5-5
		c-1.3-1.1-3.1-1.7-5-2.7c0.2-0.6,0.5-1.6,0.9-2.7c-1.8-0.4-3.4-0.8-5.1-1.2c-0.6,1.3-0.8,3.5-1.8,3.8c-6.1,2.1-5.3,6.5-5.5,11.2
		c-0.4,7.3-2.2,14.5-2.4,21.8c-0.3,10,2.4,20.5-0.1,29.9c-4,15.1-2.5,30.2-3.4,45.2c-1.9,32.5-4.3,65,1.2,97.4
		c0.3,1.6,0.6,3.3,0.3,4.9c-1.2,7.4-2.5,14.7-3.8,21.7c-4.9-12.1-6.5-28.6-5.1-41c1.2-9.9,2.4-20,1.6-29.9
		c-2-26.1-5.1-52.1-7.7-78.1c-0.8-7.6-1.5-15.2-2.6-22.7c-1.3-8.3-4.2-16.5-4.3-24.7c-0.1-8.5-2.9-16.3-4.5-24.4
		c-0.3-1.5-1-3-2.7-4.7c-12.6,19.1-16.1,40.9-19.1,62.7c-0.5-0.1-1.1-0.2-1.6-0.4c1.3-8.9,2.7-17.7,3.8-26.6
		c1.1-9.3,1.7-18.6,3-27.9c0.4-2.9,2-5.6,3.1-8.4c0.6-1.4,1.4-2.6,2.5-4.8c-5.3,0-10.1-1.2-13.3,0.3c-3.9,1.9-6.9,5.9-9.8,9.3
		c-12.9,15.5-19.7,33.9-27,52c-12.1,30-24,60.1-36.2,90.1c-14.5,35.9-29.2,71.8-43.9,107.6c-1.2,3-3.6,5.6-5.4,8.4
		C352,971.7,352.2,971.8,352.2,971.8z M355.6,466.9c-8,15.2-19.6,27.3-34,37.8c7,2.5,19,0.8,22.1-2.7
		C352.6,491.8,353.8,479.3,355.6,466.9z M429.1,345.6c-1,0-2-0.1-3-0.1c-1,5.4-2.5,10.7-3,16.1c-0.3,4.3,0.5,8.8,1,13.1
		c0.2,2.2,0.6,4.4,0.9,6.6c2.1-1.1,4.4-2.1,6.3-3.5c1.4-1.1,2.8-2.7,3.2-4.3C437.1,363.4,432.1,354.7,429.1,345.6z M394.7,398.6
		c-4,3.5-8.4,6.4-11.4,10.2c-1.7,2.1-1,5.8-1.4,8.8c2.6-0.8,5.4-1.3,7.6-2.6c2.4-1.4,4.3-3.4,6.2-5.3
		C399.7,405.9,400.6,402.2,394.7,398.6z"/>
	<path d="M334.2,229.1c-4.7-14.1-9.2-28.2-14.3-42.1c-1.2-3.4-4.3-6.3-6.3-9.5c-1.6-2.6-3-5.4-4-8.3c-1.2-3.5-2-7.1-2.7-10.7
		c-0.7-3.3-4.4-6.8,0.4-10c0.4-0.3-0.5-2.5-1-3.8c-3.3-8.4-6.6-16.8-10-25.3c0.7-0.3,1.4-0.5,2.1-0.8c5.3,11.6,11.3,23,15.6,34.9
		c3.5,9.5,4.6,19.8,7.5,29.5c3.8,13,8.4,25.9,12.5,38.8c0.7,2.3,0.8,4.8,1.2,7.2C334.9,229,334.5,229,334.2,229.1z"/>
	<path d="M336.3,332.2c-2.7-3.4-5.3-6.8-8.4-10.7c-4.7,4-7.8,1.2-10.2-2.6c-3-4.7-6.2-9.5-8.1-14.6c-1-2.7-0.6-6.7,1-9
		c1.7-2.4,6.6-5.4,8.2-4.7c3.5,1.7,6.6,5.2,8.2,8.7c1.8,4,1,9,2.4,13.2c2.2,6.5,5.2,12.8,7.9,19.1
		C336.9,331.8,336.6,332,336.3,332.2z"/>
	<path d="M305.8,553.5c-0.4,1-0.5,2.6-1.2,2.9c-19.2,7-38.5,13.8-57.7,20.7c-20.8,7.5-41.6,15.2-62.5,22.7
		c-13,4.7-26.1,9.2-39.2,13.7c-0.2-0.5-0.4-1-0.6-1.4c4.3-1.7,8.6-3.5,12.9-5.1c26.8-10.1,53.5-20.3,80.4-30.1
		c18.5-6.8,37.3-12.9,56-19.4c2.4-0.8,4.5-2.6,6.9-3.4c1.5-0.6,3.4-0.3,5.2-0.4C306,553.7,305.8,553.5,305.8,553.5z"/>
	<path d="M524.8,945.8c0,10.6-0.2,21.1,0,31.7c0.2,10.9,0.8,21.7,1.2,32.5c0.1,2.7,0.3,5.4-0.3,8c-0.6,2.2-2.4,4-3.7,6
		c-1.5-2.1-4.3-4.3-4.3-6.4c-0.1-3.9,0.8-8.1,2.5-11.6c4.6-9.9,2.3-20.2,2.7-30.3c0.4-9.9,0.1-19.9,0.1-29.8
		C523.6,945.8,524.2,945.8,524.8,945.8z"/>
	<path d="M615.4,243.1c2.5,11.6-3.2,26-11.4,29.7C602,257.6,606.3,246,615.4,243.1z"/>
	<path d="M697.7,781.7c3.6-1.4,7.2-4,10.8-3.9c4.4,0.1,11.3,9.8,10,13c-0.6,1.5-4.3,3.5-5.4,2.9c-5.4-2.5-10.4-5.8-15.6-8.8
		C697.5,783.9,697.6,782.8,697.7,781.7z"/>
	<path d="M822.6,788.7c0.6-0.3,1.3-0.6,1.9-1c5.2,4.8,10.6,9.5,15.6,14.6c15,15,29.9,30.2,44.8,45.3c0.4,0.4,0.5,0.9-0.4,2.2
		C863.9,829.5,843.3,809.1,822.6,788.7z"/>
	<path d="M495.1,221.5c-1.7-5.2-3.9-9.7-4.6-14.4c-0.3-2.1,1.7-5.6,3.7-6.6c1.5-0.7,5.4,1.1,6.9,2.7
		C505.6,208.1,502.9,217.5,495.1,221.5z"/>
	<path d="M809.1,277.1c1.2-3.6,2-7,3.5-10.1c1.1-2.1,2.9-4.4,5.1-5.2c2.4-1,5.5-0.4,8.2-0.5c-0.8,2.5-1.2,5.3-2.6,7.4
		c-1.5,2.1-3.9,3.8-6.2,5.2C814.9,275.3,812.1,276,809.1,277.1z"/>
	<path d="M435.8,127.6c-10.5-8.8-3.7-19.6-6.1-28.8C436.8,111.2,438.2,117.7,435.8,127.6z"/>
	<path d="M744,425c1.2,1.3,2.4,2.6,3.6,3.8c1.6-0.8,3.3-1.5,4.9-2.3c0.4,0.5,0.7,1,1.1,1.4c-5.3,4-10.5,8-16.1,12.3
		C731.3,431.7,743,430.7,744,425z"/>
	<path d="M751.8,31.9c3.3,5.7,1.6,10-6.7,16.6C740.1,42.7,742.8,35.9,751.8,31.9z"/>
	<path d="M369.1,774.8c1.9,8.3-4.7,12.8-7.7,19.4C357.1,787.5,360.1,780.3,369.1,774.8z"/>
	<path d="M189.4,420.1c10.4-0.6,18.7,6.6,28.8,7.1c-0.2,0.8-0.4,1.6-0.6,2.4c-9.6-2.2-19.2-4.4-28.9-6.6
		C188.9,422,189.2,421,189.4,420.1z"/>
	<path d="M439.6,159.9c1.4,15.7,2.9,31.4,4.3,47c-0.7,0-1.3,0.1-2,0.1c-1.3-15.7-2.6-31.4-3.9-47.1
		C438.5,160,439.1,159.9,439.6,159.9z"/>
	<path d="M786.6,541.3c-7.2-1.2-12.8-2-18.3-2.9c-0.2-0.8-0.3-1.5-0.5-2.3c2.2-0.6,4.7-2.1,6.4-1.5
		C778.2,535.9,784.4,533.5,786.6,541.3z"/>
	<path d="M362.6,261.9c-2.6-6-5.2-12-7.7-18c-0.3-0.8,0.6-1.9,0.9-2.9c1,0.5,2.7,0.8,2.8,1.5c1.4,6.5,2.6,13,3.9,19.6
		C362.4,262.1,362.6,261.9,362.6,261.9z"/>
	<path d="M597.8,72.2c6.1,3.7,6,6.9,0.2,13.5C592.6,81.7,592.5,79.6,597.8,72.2z"/>
	<path d="M352,971.7c-2,6.1-3.6,12.4-6,18.4c-2.6,6.6-5.9,12.9-8.9,19.4c-0.6-0.2-1.2-0.5-1.7-0.7c5.6-12.3,11.2-24.6,16.8-36.9
		C352.2,971.8,352,971.7,352,971.7z"/>
	<path d="M891.6,361c5.9-5.6,10.6-6.2,14.8-2.2C902.3,364.2,898.3,364.9,891.6,361z"/>
	<path d="M745.3,188.6c1.1,2.5,1.5,3.8,2.2,5c0.3,0.6,1.7,0.9,1.7,1.2c-0.2,1.2-0.4,2.8-1.2,3.3c-1.9,1.2-4.1,2-6.4,2.5
		c-0.3,0.1-2.2-2.9-1.8-3.8C741.1,194.2,743.1,191.8,745.3,188.6z"/>
	<path d="M304.3,467c-5.4,5.2-12,1.7-18,1.9c-4.2,0.1-8.4-1.5-12.5-3.5C284,465.9,294.1,466.5,304.3,467
		C304.3,467,304.3,467,304.3,467z"/>
	<path d="M809.2,408.7c11.6-5.9,23.2-11.7,34.8-17.6c0.4,0.7,0.8,1.4,1.2,2.1c-11.9,5.2-23.8,10.5-35.6,15.7
		C809.4,409,809.2,408.7,809.2,408.7z"/>
	<path d="M225.4,632.9c9-6.5,18-13,27.1-19.5c0.4,0.5,0.9,1.1,1.3,1.6c-9,6.5-18.1,12.9-27.1,19.4
		C226.3,633.9,225.8,633.4,225.4,632.9z"/>
	<path d="M711.5,631.6c10.4,4.3,18.9,11,25.1,20.2c-8.3-6.8-16.6-13.6-24.9-20.3C711.7,631.5,711.5,631.6,711.5,631.6z"/>
	<path d="M578.1,919.7c0.4,4.9,0.9,9.8,1.3,14.6c-0.8,0.1-1.6,0.1-2.3,0.2c-2.9-4.7-4.3-9.6-1.5-14.8
		C576.4,919.7,577.2,919.7,578.1,919.7z"/>
	<path d="M398.7,20.5c0.2,4.3,0.5,8.6,0.7,12.9c-1.1,0.1-2.3,0.1-3.4,0.2c-0.3-4.3-0.6-8.6-0.9-12.9
		C396.3,20.6,397.5,20.5,398.7,20.5z"/>
	<path d="M793.7,467.2c8.9-1.6,17.8-3.2,26.7-4.8c0.1,0.7,0.2,1.4,0.3,2.1c-9.1,0.9-18.1,1.7-27.2,2.6
		C793.6,467.1,793.7,467.2,793.7,467.2z"/>
	<path d="M251.4,483.2c7.5,0,15.1,0,22.6,0c0,0.5,0,1,0,1.5c-7.6,0-15.1,0-22.7,0C251.3,484.3,251.4,483.7,251.4,483.2z"/>
	<path d="M793.6,467.1c-7.4,1.7-14.9,3.3-22.3,5c-0.2-0.8-0.3-1.5-0.5-2.3c7.6-0.9,15.3-1.7,22.9-2.6
		C793.7,467.2,793.6,467.1,793.6,467.1z"/>
	<path d="M809.4,409c-6.9,3.8-13.8,7.6-20.7,11.4c-0.3-0.6-0.7-1.2-1-1.8c7.1-3.3,14.3-6.6,21.4-9.9
		C809.2,408.7,809.4,409,809.4,409z"/>
	<path class="st0" d="M355.6,466.9c-1.9,12.4-3,24.9-11.9,35c-3.1,3.6-15.1,5.3-22.1,2.7C336,494.2,347.7,482.1,355.6,466.9z"/>
	<path class="st0" d="M429.1,345.6c3,9.1,7.9,17.8,5.4,27.9c-0.4,1.6-1.8,3.2-3.2,4.3c-1.9,1.4-4.2,2.3-6.3,3.5
		c-0.3-2.2-0.7-4.4-0.9-6.6c-0.4-4.4-1.3-8.8-1-13.1c0.4-5.4,1.9-10.7,3-16.1C427.2,345.5,428.1,345.6,429.1,345.6z"/>
	<path class="st0" d="M375.3,593.7c-1.4,0-4.1,0.1-4.1,0c-0.9-9.4-1.7-18.9-2.5-28.3c1-0.3,2-0.6,3.1-0.9c2.9,3.7,5.7,7.3,8.4,10.7
		c-6.3,5.8-3.6,12.7-5.1,18.7C375.1,593.9,375.3,593.7,375.3,593.7z"/>
	<path class="st0" d="M394.7,398.6c5.9,3.7,5,7.4,1.1,11.1c-2,1.9-3.9,3.9-6.2,5.3c-2.3,1.3-5.1,1.8-7.6,2.6c0.4-3-0.3-6.7,1.4-8.8
		C386.2,404.9,390.6,402,394.7,398.6z"/>
</g>
</svg>
